<svg width="1133" height="934" viewBox="0 0 1133 934" fill="none" xmlns="http://www.w3.org/2000/svg">
<path d="M691.517 892.814L708.468 754.71L722.926 641.535L738.257 516.02L738.631 502.932L737.759 495.828L736.513 491.59L734.269 486.355L732.025 482.616L729.782 479.873L716.196 466.163L697.125 452.327L696.253 451.206L695.505 450.084L695.131 449.211L694.633 446.469L693.386 366.573L693.137 364.704L692.763 363.582L692.264 362.46L691.517 361.338L690.769 360.591L690.145 360.092L672.945 353.237L671.823 352.489L670.826 351.367L669.33 349.124L660.481 340.399L659.234 339.651L658.112 339.277L656.741 339.152L648.764 340.648H647.518L646.271 340.399L644.9 340.025L643.654 339.401L630.442 329.804L627.076 327.934L624.708 327.062L622.34 326.563L613.366 326.314L611.122 325.815L609.876 325.317L607.632 323.696L602.522 318.835L599.156 314.722L598.035 313.725L596.913 313.102L595.667 312.853L591.803 312.479L589.31 311.731L573.979 302.881L572.857 301.759L571.486 300.139L570.863 298.519L569.367 293.284L568.619 291.788L567.747 290.542L565.503 288.423L560.891 285.057L560.268 284.683L559.645 283.936L558.274 281.817L557.775 280.57L557.526 279.448V278.327L557.651 277.329L558.149 275.584L559.52 272.094L560.642 270.1L569.616 259.132L572.234 255.268L591.179 219.495L594.42 214.634L598.658 209.898L603.893 205.037L611.496 200.799L636.923 191.202L637.671 190.454L638.543 190.204L640.912 189.706L643.28 189.207L649.263 189.955L655.246 190.703L661.353 191.451L667.336 192.199L672.696 192.822L678.055 193.57L683.415 194.318L688.774 195.065L691.766 195.439L692.389 196.561L695.007 200.924L697.998 209.15L698.247 210.77L698.497 214.011L698.995 215.881L699.743 217.75L700.491 219.121L701.737 220.119L702.859 220.991L703.981 222.113L704.355 223.733H707.222L716.819 223.609L726.416 223.484L735.889 223.359L745.487 223.235L746.733 224.606L747.481 225.104L748.852 225.727L748.977 226.226L749.475 228.844V230.962L749.101 232.334L747.855 231.835L747.606 232.209L747.481 232.458V232.707H748.478L749.351 232.458L750.098 231.96L750.348 230.962L750.971 231.461V231.96L750.348 233.081L750.098 234.702L749.974 235.45L750.348 236.821L750.971 238.067L755.458 243.053L755.707 243.801L754.96 244.922L754.586 246.044V247.291L754.835 248.537L755.333 249.534L757.079 251.902L757.452 252.526L757.328 253.273V253.523L758.2 254.021L759.945 254.769L760.568 254.894L762.438 254.769L762.937 255.018L763.934 255.517L764.557 255.642L764.806 255.891V256.265L764.682 256.639L764.432 256.888L764.058 257.137H763.685L763.311 256.888L762.438 257.387L762.189 257.761V258.633L762.687 259.506L763.809 260.627L765.056 261.5L766.053 261.998V262.248L767.299 264.117L769.418 266.236L769.667 266.86L769.169 268.106V268.854V269.602L769.418 269.851L769.293 270.35L768.795 271.222L768.047 272.219L767.299 272.842L767.798 272.094V271.596L767.673 270.1L767.798 269.228L768.172 268.729L768.296 268.231L768.047 267.358L767.299 268.231L766.427 270.474L765.554 271.097L766.551 268.48L766.676 267.732L766.302 266.61L765.928 266.735L765.43 267.607L764.432 271.845V272.842L764.308 272.967L764.058 273.341L764.183 273.715L764.806 273.59L765.056 273.341L765.43 272.344L765.803 271.97V274.712L766.053 275.335L766.551 275.211L767.05 274.712L767.299 274.089L767.798 274.712V275.584L767.673 276.582L768.421 276.831L768.92 276.457L769.293 275.958L769.543 275.335V276.332L769.418 276.706L769.169 276.956L769.418 277.579V277.953L769.044 278.077L768.421 278.202L769.044 279.448L769.169 279.822L767.922 279.199H767.299L766.925 279.822L768.047 280.321H769.044L769.792 279.698L770.291 278.576H770.665L771.038 279.448L770.415 280.196L770.166 281.318L770.415 282.315H771.412L771.786 281.941L771.537 281.443L771.163 281.069L771.038 280.695L771.412 280.072L772.036 279.822L773.282 279.448L774.279 279.324L775.027 279.698L776.897 281.567L778.891 282.564L779.389 283.312L778.392 284.06L779.14 284.309H779.888L780.137 283.811L779.888 283.188L780.761 283.562L781.758 283.811L783.752 284.06L784.251 283.811L785.123 283.312L785.622 283.188H786.12L787.242 283.562H787.865L788.862 283.936L789.735 284.683L790.981 286.428L791.355 286.802L791.729 287.052L792.103 287.301L792.477 287.799L792.602 288.173L792.726 289.295L792.851 289.794H792.103L791.729 289.544L791.604 288.921L791.729 288.173H791.355L790.233 289.544L787.242 289.171L786.245 290.292H785.746L785.372 289.171H784.5L782.506 290.292L782.879 290.542L784.126 290.791L784.749 291.165L785.123 291.414L785.497 291.788L785.871 292.037L786.494 292.411L786.868 292.785L787.117 293.034L787.491 292.91L788.364 292.037V291.913L788.613 291.663L788.738 291.289L788.987 291.04L789.236 291.289L789.735 291.663L790.233 291.913L789.859 292.785L789.361 293.159L788.738 293.408L788.364 294.032L788.239 294.655L788.114 296.15L787.99 296.898L788.613 296.774L789.236 296.4L789.859 295.901L790.358 295.403L790.981 295.278L791.729 295.403L792.851 296.026L792.352 297.272L792.602 298.394L792.976 299.64L793.225 300.887L793.1 303.38L793.349 304.502L794.222 304.377V305.499L794.596 305.873L795.219 305.748L795.718 305.249L795.468 304.252L795.967 303.754L796.839 303.629L797.587 304.377L797.961 303.878L798.211 304.626L798.086 305.249L797.712 305.873L797.587 306.62L797.338 307.119L796.964 307.368H796.341L795.718 307.244L796.216 307.992L797.463 308.241L797.961 308.864L798.46 308.615L798.834 308.116L799.457 306.87V307.119H799.582L799.831 307.244L799.208 308.365L799.706 308.49L801.077 308.116L801.95 308.241L803.321 308.864H804.193L802.822 307.368L802.324 306.371L803.072 305.623L803.819 305.499L804.318 305.873L804.817 306.247L805.315 306.496L805.689 306.247L806.811 305.249L806.562 306.122L806.063 307.618V308.49L806.437 309.861L806.686 310.609L806.936 310.983L807.933 311.481L808.93 312.603L812.046 317.464L813.666 319.459L814.165 319.833L815.66 320.456L816.159 320.954L816.907 321.702L817.53 322.201L820.771 323.696L822.89 325.192L824.136 325.317H825.383L826.629 325.441L828.374 326.439L829.87 327.934L832.612 331.674L833.484 333.294L837.473 336.161L838.345 337.158L838.47 338.654L836.102 336.535L834.731 335.662L831.864 335.288L831.116 335.039L830.618 334.416L830.119 332.172L829.62 332.546L829.122 333.543L828.873 334.54V335.288V336.036L829.122 336.659L829.496 337.283L829.994 337.781L830.119 338.155L829.87 341.77L829.994 342.767L831.49 347.379L832.113 348.376L832.986 349.248L833.858 349.871L838.47 351.492L840.09 352.863L841.087 354.857L841.461 357.599V364.205L841.212 365.576L840.714 366.823L839.592 367.446V366.573L839.218 366.2L838.595 366.449L838.096 367.072L838.47 368.568L838.345 370.936L837.847 373.304L837.348 374.925L836.6 374.301L836.351 373.429V372.432L836.226 371.559L835.853 370.811L835.354 370.437L834.855 370.063L834.481 369.565L834.232 369.316H833.983L833.734 369.191L833.609 367.446L833.484 367.072L833.36 366.698L832.861 366.075L832.238 365.452L831.49 364.953L830.991 365.202L829.496 367.945L829.122 368.318L828.499 368.692L828.748 369.44L829.371 370.313L829.62 370.562L829.745 371.061L830.244 371.808L830.368 372.432L830.244 372.556L829.87 372.681L829.496 372.93L829.246 373.429L829.371 374.301L829.62 375.174V376.046L829.246 376.919L830.119 377.293L830.991 376.794L831.365 375.922L831.116 374.925L831.615 375.049L831.989 375.298L832.612 376.171L832.861 376.296L833.11 376.171L833.235 376.296L833.36 376.67V377.043V377.293H833.609H833.858L835.229 377.667L835.853 378.539L836.102 379.536L836.725 380.658V381.032L835.603 382.154L836.226 384.896L837.473 388.012L838.47 390.006L841.711 393.995L843.082 396.238L843.705 398.981H843.331L842.334 396.238L841.96 395.74L841.337 395.615L840.589 395.241L839.841 394.743L839.218 393.746L838.345 393.122L837.598 392.998L837.348 394.119L837.847 394.992L839.218 395.989L839.592 396.612L839.841 395.989L839.966 395.74H840.34L842.334 399.978L848.566 407.955L849.937 409.201L849.812 408.453L849.439 407.456L849.314 406.708L849.688 406.459L850.311 406.085L850.56 406.21L850.81 407.581L851.059 407.955L851.308 408.079L851.433 408.204L851.807 409.077L852.804 409.575L854.674 410.074L855.172 410.697L856.169 413.314L855.795 413.688L856.418 414.685L857.166 416.181L857.79 417.926L858.039 419.297V420.045L857.665 421.292V422.039L857.79 422.912L858.039 423.41L858.288 423.784L858.537 424.782L859.285 426.277L859.535 427.15L859.161 429.643L859.535 432.011L860.033 433.382L860.656 434.13L861.03 433.008L862.401 434.13L863.897 435.999L864.52 436.996L865.393 437.869L866.515 441.733L867.761 442.605L868.883 443.603L869.381 445.971L869.506 449.585L869.631 450.209L870.129 451.33L870.752 452.327L871.251 452.826H872.124L873.121 451.829L873.245 451.704L873.37 451.829L877.234 458.186L879.727 461.052L882.469 462.299L885.709 462.673H888.701L889.573 462.424L891.568 461.8L895.182 458.809L895.307 459.307H895.681L898.049 458.934L898.548 459.183L898.672 459.307L898.797 459.557L899.046 459.806L899.42 460.18L900.043 459.681L900.168 460.055V460.18L900.043 460.679L899.919 461.177L899.545 461.302L899.171 461.676L899.296 462.299L899.545 462.797L899.669 462.922L899.545 464.916L899.919 465.29L900.791 464.916L901.539 464.418L903.035 461.8L903.159 461.551L903.783 461.052L904.406 460.554L904.904 459.806V458.435L905.652 458.934H906.649L907.522 459.183L907.771 459.931L908.145 460.679L908.768 460.803H909.641L910.389 461.302V461.8L909.516 462.174L908.394 462.548L907.522 463.047L907.023 463.919H906.899L905.652 465.29L905.403 465.789L905.154 466.537L904.904 466.911L901.664 469.279L901.165 470.027L901.041 470.276L900.293 471.273L900.043 471.772L899.919 472.395L899.794 473.766L899.669 474.265V474.639V475.012V475.386L899.545 475.511L898.922 475.386L898.672 475.511L898.548 475.636V477.007V477.63L898.797 477.879L902.162 478.253L903.409 477.879L904.032 477.505L904.531 477.131L905.029 476.757L905.777 476.633L909.392 477.381L910.264 478.128L911.884 479.998L914.253 480.621L914.502 482.99V484.485L914.377 488.225L914.751 489.72L915.499 491.091L918.615 495.08L921.357 498.819L924.224 502.434L926.966 506.048L929.833 509.788L932.575 513.402L935.442 517.017L938.184 520.632L941.051 524.246L943.793 527.985L946.66 531.6L949.402 535.215L952.269 538.829L955.011 542.444L957.878 546.059L960.62 549.673L963.486 553.288L966.353 557.027L967.475 558.024L968.721 558.398L977.446 559.645L984.925 560.642L992.403 561.639L999.882 562.636L1007.36 563.633L1014.84 564.63L1022.32 565.628L1029.8 566.625L1037.27 567.622L1044.75 568.619L1052.23 569.616L1059.71 570.613L1067.19 571.61L1074.67 572.607L1082.15 573.605L1089.62 574.602L1097.1 575.599L1104.46 576.596L1105.2 576.347L1108.82 571.735L1112.18 577.469L1116.55 584.698L1120.91 591.927L1125.27 599.281L1129.63 606.51L1132.5 611.247L1133 612.493V613.864L1131.01 620.47L1130.76 621.218L1130.38 622.464L1129.39 625.705L1127.89 630.691L1125.9 637.172L1123.53 644.9L1120.79 653.5L1118.04 662.599L1117.3 664.843L1115.05 672.072L1112.06 681.545L1109.32 690.644L1106.58 699.244L1104.21 706.847L1102.21 713.329L1100.72 718.315L1099.72 721.431L1099.35 722.677L1097.6 728.161L1089.5 731.028L1080.28 734.269L1071.05 737.509L1061.95 740.75L1052.73 744.116L1043.51 747.356L1034.28 750.597L1025.06 753.838L1015.84 757.078L1006.61 760.319L997.389 763.56L988.29 766.8L979.067 770.166L969.843 773.407L960.62 776.647L951.396 779.888L942.173 783.129L936.439 785.123L936.19 785.248L935.193 785.372L927.714 786.369L919.114 787.616L910.513 788.862L901.913 790.109L893.313 791.355L884.712 792.601L875.987 793.723L867.387 794.97L858.787 796.216L850.186 797.462L841.586 798.709L832.986 799.831L824.385 801.077L815.785 802.324L807.06 803.57L798.46 804.816L794.471 805.315L789.859 806.063L782.879 806.935L778.642 808.556L778.268 808.805L777.271 809.303L776.024 809.927L774.778 810.55L773.531 811.173L772.285 811.796L771.911 811.921L770.914 812.42L769.792 813.043L768.296 813.791L767.175 814.414L758.574 818.776L748.229 824.136L739.005 828.872L732.15 832.362L731.776 832.736L730.904 833.235L726.79 838.47L721.929 844.702L713.329 855.297L705.352 865.393L700.117 871.999L699.244 873.744L696.627 880.724L693.012 890.695L691.517 892.689V892.814ZM806.437 295.652L807.434 296.15L810.301 296.898L813.043 297.771L812.046 298.145L811.298 297.895L810.425 297.522L809.553 297.272L808.68 297.397L807.808 297.771L807.06 298.269L806.437 298.893L805.938 298.519H805.689L805.315 298.269L804.941 298.145V297.771L805.689 297.397L805.814 297.148L805.564 296.774L805.315 296.524L805.19 296.275L804.567 296.026L803.944 296.15L803.445 296.275L802.947 296.4L802.199 296.774L801.576 297.397L800.953 298.394L800.579 299.391L800.454 297.771L801.451 296.275L802.947 295.153L804.567 294.779L805.19 294.904L805.689 295.153L806.437 295.652Z" fill="#506754"/>
<path d="M637.671 190.454L636.923 191.202L611.496 200.799L603.893 205.037L598.658 209.898L594.42 214.634L591.179 219.495L572.234 255.268L569.616 259.132L560.642 270.1L559.52 272.094L558.149 275.585L557.65 277.329L557.526 278.327V279.448L557.775 280.57L558.274 281.817L559.645 283.936L560.268 284.683L558.024 287.924L556.903 288.547L555.532 289.171L554.285 289.046L553.163 288.547L552.166 287.799L551.418 286.802L551.294 286.678L551.044 286.304L550.047 285.431L549.299 283.686L547.928 282.066L538.954 273.964L537.708 273.092L535.339 271.721L533.47 271.097L516.892 268.48L515.397 267.981L513.527 267.109L512.156 265.987L510.785 264.741L508.915 262.123L504.428 250.157L495.329 233.705L494.457 232.458L493.21 231.461L491.715 230.962L489.845 231.087L488.349 231.71L482.117 235.824L479.998 236.821L478.752 237.07L477.381 236.945L475.262 236.197L469.528 233.206L468.033 232.708L466.163 232.583L460.803 233.081L459.432 232.957L457.936 232.583L456.067 231.336L454.82 229.965L454.073 228.096L453.699 226.725L453.574 225.977L453.325 221.365L453.2 220.866L452.702 220.368L451.58 219.745H449.71L448.09 219.994L446.594 220.742L442.232 223.11L440.736 223.733L439.115 224.107L437.37 224.232L435.376 223.983L432.759 222.985L430.889 221.739L429.269 220.493L422.787 212.64L421.541 211.518L420.419 210.77L417.926 209.773L399.479 205.535L398.108 205.411L392.375 205.785L385.769 207.405L384.397 207.654H383.026L381.157 207.28L368.069 203.043L366.324 202.793L364.081 202.669L360.217 203.167L331.674 209.773H330.427L327.311 209.025L321.079 206.408L328.682 198.805L329.555 197.558L330.053 196.312L330.303 195.439L330.427 195.065L331.798 174.499L332.048 173.253L332.422 171.882L333.169 170.636L334.167 169.389L335.538 168.018L341.396 163.531L386.267 135.486L390.754 131.872L393.122 129.379L394.12 128.132L394.369 126.886L393.995 125.64L392.998 124.518L384.896 118.286L382.279 115.793L381.406 114.422L379.786 111.68L377.417 105.946L376.67 104.949L375.299 103.204L374.301 102.082L372.307 100.836L370.687 100.213L364.33 99.34H359.968L356.976 98.9661L355.231 98.3429L353.735 97.595L343.016 88.9947L341.271 88.1222L339.277 87.6236H333.917L330.677 88.1222L301.261 87.3744L296.275 86.2526L294.406 85.5047L293.035 84.7569L289.046 81.2669L287.8 80.2698L286.553 79.5219L284.808 79.148L248.413 73.4144L241.308 73.2898L224.73 75.7826L200.799 78.1508L198.182 78.0262L195.813 77.403L194.567 76.9044L193.321 76.2812L192.199 75.284L191.326 74.0376L189.457 70.7969L188.459 68.678L186.964 65.9359L185.219 63.443L183.598 61.8227L178.862 58.4573L177.99 57.3355L177.616 56.3384L177.491 55.4659L177.366 55.092L177.117 53.4716L176.868 49.6077L177.117 47.4888L183.598 23.4328L193.694 20.4414L205.785 16.9514L217.875 13.4614L229.965 9.84675L236.073 8.10176L237.943 7.3539L244.424 1.24642L245.421 0.373926L245.92 0.249281H246.169L246.294 0.124641H246.418L246.543 0L257.262 1.86964L267.857 3.73927L278.451 5.48427L289.171 7.3539L293.408 8.10176L311.856 11.7164L314.722 12.8382L317.714 14.5832L323.198 17.8239L327.934 20.6906L332.671 23.5574L337.407 26.2996L342.144 29.1663L346.88 32.0331L351.492 34.7752L356.228 37.642L360.965 40.5088L365.701 43.2509L370.438 46.1177L375.174 48.8598L379.91 51.7266L384.522 54.5934L389.258 57.3355L393.995 60.2023L398.731 62.9444L403.468 65.8112L407.082 68.9273L411.694 72.9158L416.181 76.7798L420.668 80.7683L425.28 84.7569L430.391 89.1194L435.501 93.6065L440.611 98.0936L441.608 98.9661L445.597 102.456H445.722L451.33 107.193L456.067 111.056L460.803 114.92L465.54 118.784L470.276 122.648L476.508 127.634L482.616 132.62L488.848 137.73L494.955 142.716L497.573 144.835L501.187 147.701L507.295 152.687L513.402 157.673L519.635 162.658L524.745 166.896L529.855 171.009L534.966 175.123L540.076 179.361L544.314 182.601L544.563 182.726L544.937 182.975L545.311 183.1L545.685 183.224L550.546 183.598L554.908 183.972L559.146 184.471L563.384 184.845L567.747 185.219L573.231 185.717L578.715 186.216L584.199 186.714L589.808 187.213L595.292 187.712L600.777 188.21L606.261 188.709L611.745 189.207L615.858 189.581L619.972 189.955L624.085 190.329L628.198 190.703L633.807 191.202L636.175 190.703L637.671 190.454Z" fill="#506754"/>
<path d="M183.598 23.4328L177.117 47.4888L176.868 49.6077L177.117 53.4716L177.366 55.092L177.491 55.4659L177.616 56.3384L177.989 57.3356L178.862 58.4573L183.598 61.8227L185.219 63.443L186.964 65.9359L188.459 68.678L189.457 70.7969L191.326 74.0376L192.199 75.2841L193.321 76.2812L194.567 76.9044L195.813 77.403L198.182 78.0262L200.799 78.1508L224.73 75.7826L241.308 73.2898L248.412 73.4144L284.808 79.148L286.553 79.5219L287.799 80.2698L289.046 81.2669L293.035 84.7569L294.406 85.5047L296.275 86.2526L301.261 87.3744L330.677 88.1222L333.917 87.6237H339.277L341.271 88.1222L343.016 88.9947L353.735 97.5951L355.231 98.3429L356.976 98.9661L359.967 99.3401H364.33L370.687 100.213L372.307 100.836L374.301 102.082L375.299 103.204L376.67 104.949L377.417 105.946L379.786 111.68L381.406 114.422L382.279 115.793L384.896 118.286L392.998 124.518L393.995 125.64L394.369 126.886L394.12 128.132L393.122 129.379L390.754 131.872L386.267 135.486L341.396 163.531L335.538 168.018L334.167 169.389L333.169 170.636L332.422 171.882L332.048 173.253L331.798 174.499L330.427 195.065L330.303 195.439L330.053 196.312L329.555 197.558L328.682 198.805L321.079 206.408L317.714 205.535L316.592 205.66L296.151 214.136L276.208 225.478L266.86 228.096L246.543 237.818L245.172 238.69L243.925 239.563L238.067 246.044L235.948 244.299L235.2 243.925L234.328 243.676L232.957 243.551L231.087 243.925L229.467 244.299L223.858 247.166L222.487 247.789L221.24 247.914L219.869 247.789L218.748 247.041L217.875 246.044L216.379 242.43H214.011L213.014 242.305L211.892 241.931L210.023 240.809L208.776 240.56L207.031 241.059L205.66 241.682L203.915 242.305L201.921 242.43L191.202 241.308L187.836 240.56L181.978 238.566L179.485 237.07L175.871 234.079L174.998 232.957L174.126 231.71L173.502 230.464L172.63 228.345L172.007 225.728L171.633 222.238L171.508 216.753L172.007 206.907L171.757 205.535L171.259 204.289L170.262 203.541L169.015 203.292L167.893 203.666L164.528 206.907L160.913 209.15L159.792 210.147L159.044 211.394L158.421 212.64L156.177 218.249L155.554 219.495L154.681 220.617L153.435 221.24L151.939 221.614L142.716 220.991L138.229 220.119L130.002 217.376L126.886 216.878H122.648L109.81 219.745L103.827 221.988H102.955H101.708L99.4647 221.24L99.0908 220.991L98.7169 220.617L84.8816 202.544L83.1366 200.924L80.7684 199.303L79.5219 198.68L68.9273 196.063H65.4373L61.1995 196.81L54.0949 197.309L43.0017 199.428L40.7581 200.176L38.8885 201.048L37.0188 202.918L36.1463 203.417L34.7753 203.666L27.0474 202.918L22.685 201.796L20.8153 201.672L19.0703 202.045L14.4586 202.17V201.921L13.5861 201.547V201.173L14.3339 199.802L15.2064 197.309L15.5803 194.692L14.9571 193.196V192.323L15.5803 191.202L16.0789 189.83L17.2007 184.346L17.45 183.474L18.0732 182.103L17.9485 181.729L18.0732 180.856L18.5718 180.358L19.8182 179.61L19.4443 178.613L19.3196 177.242L19.4443 176.369L20.1921 176.743V176.494V176.369L20.3168 176.244H20.566L20.0675 175.372L19.9428 174.375L20.1921 173.378L26.1749 174.499L32.5317 175.621L40.8828 176.992L48.3613 178.363L56.3384 179.734L62.6952 180.856L65.8113 181.355L72.0434 182.477L77.6523 183.349H79.0234L80.3944 182.726L86.2526 177.989L91.9862 173.253L98.2183 168.018L102.332 164.528L105.821 158.67L109.187 153.061L111.68 148.823L114.671 143.713L115.918 142.342L117.413 141.594L122.025 140.597L126.886 139.6L134.614 137.979L142.217 136.484L149.446 134.988L155.803 133.617L156.925 132.62L159.293 126.761L161.163 122.399L163.032 117.663L164.653 113.799L165.401 112.677L166.647 111.68L172.381 108.314L178.987 104.7L182.851 102.456L183.224 102.207L180.607 99.0908L174.749 92.1108L168.766 85.1308L162.908 78.1508L157.05 71.1709L156.8 71.0462L156.676 70.7969L156.551 70.5477L156.302 70.423L149.322 62.8198L142.466 55.3413L142.342 55.2166L135.362 47.6134L128.382 40.0102L130.376 39.387L141.719 35.897L154.931 31.9085L168.267 27.9199L171.508 27.0474L181.604 23.9314L183.598 23.4328Z" fill="#506754"/>
<path d="M708.468 754.71L691.516 892.814H691.392L690.27 893.562L689.148 894.185L688.026 894.808L687.652 895.182L685.284 896.553L678.678 900.417L677.432 900.916H677.058H675.811H674.69H673.319H672.072H671.947H670.826H669.704H668.582V901.04L668.208 900.916H667.46L666.837 900.542L662.225 894.185L658.362 888.576L654.872 883.715L652.877 882.593L640.912 884.214L631.937 885.46L618.974 884.089L608.754 883.092L595.417 881.721L583.95 880.474L581.582 879.727L572.732 874.616L569.741 873.993L560.642 873.868H559.395H558.274H552.665L541.821 873.744H541.696L540.699 873.993L537.458 875.239L537.334 875.364H535.713L532.099 874.616L528.733 874.492L523.623 874.99L519.51 875.987L518.388 876.112L516.144 875.364L515.023 875.239L514.275 875.863L513.776 876.735L513.527 877.234L512.654 878.231L511.657 878.729L510.286 878.48L508.167 877.483L507.295 877.358L506.173 877.981H506.048L505.301 878.979L505.051 879.477L504.553 880.1L503.805 880.848L502.434 881.098L501.811 880.973L501.561 880.724L501.312 880.474L501.187 880.1L501.312 878.979V878.854V878.355L500.938 878.106L499.692 878.605H498.694L497.199 878.48L496.576 878.355L494.581 878.605H493.584L492.587 878.231L491.341 877.358L490.343 876.486L487.601 873.37V871.625L489.097 865.891L488.972 862.9L487.851 859.534L487.726 858.163V856.543L488.225 854.299L489.596 841.835L489.471 839.467L488.972 837.099L488.1 834.606L487.601 832.113V830.742L488.1 829.122L489.222 827.003L490.593 825.258L499.318 816.034L505.301 810.799L507.046 809.054L507.669 808.057L508.292 806.935L509.538 803.819L510.286 802.448L511.533 801.202L512.779 800.329L514.026 799.831L517.765 799.083L520.133 798.21L522.626 796.964L524.994 795.344L525.991 794.346L526.739 793.349L527.487 792.227L527.985 790.732L528.359 789.236L528.484 787.117V785.123L528.235 782.63L526.365 775.401V774.03L526.739 772.534L528.11 770.415L529.357 769.293L532.847 767.424L533.719 766.8L534.218 766.053L534.592 764.806L534.841 762.937V755.707L549.798 765.18L553.662 767.05L556.529 768.172L561.639 769.418L575.474 770.29L701.488 756.704L708.468 754.71Z" fill="#506754"/>
<path d="M534.841 755.707V762.936L534.592 764.806L534.218 766.053L533.719 766.8L532.847 767.424L529.357 769.293L528.11 770.415L526.739 772.534L526.365 774.03V775.401L528.235 782.63L528.484 785.123V787.117L528.359 789.236L527.986 790.732L527.487 792.227L526.739 793.349L525.991 794.346L524.994 795.344L522.626 796.964L520.133 798.21L517.765 799.083L514.026 799.831L512.779 800.329L511.533 801.202L510.286 802.448L509.538 803.819L508.292 806.935L507.669 808.057L507.046 809.054L505.301 810.799L499.318 816.034L490.593 825.258L489.222 827.003L488.1 829.122L487.601 830.742V832.113L488.1 834.606L488.972 837.099L489.471 839.467L489.596 841.835L488.225 854.299L487.726 856.543V858.163L487.851 859.534L488.972 862.9L489.097 865.891L487.601 871.625V873.37L486.604 872.248L484.361 870.877L483.114 870.378L480.372 869.132L479.5 868.883H477.63L476.633 868.633L475.511 868.758L474.265 869.256L471.647 870.877L470.027 868.384L467.16 864.146L466.287 863.024L465.166 862.027L461.052 860.532L460.055 859.784L459.183 858.662L457.563 855.047L456.815 853.925L455.444 852.554L451.206 849.189L450.333 847.693L450.084 846.322L450.209 843.954L449.959 842.957L449.211 842.084L447.093 841.711H446.719L444.226 843.206L441.982 844.827L440.985 845.824L440.237 846.946L439.115 849.189L436.623 858.537L436.124 859.659L435.376 860.407L434.379 860.905H433.257L432.135 860.407L430.764 859.534L425.779 854.299L424.906 852.928L424.158 851.557L423.784 850.436L423.161 849.189L422.039 848.192L420.544 847.319L419.297 847.07L410.822 846.946L409.575 846.572L408.453 845.948L407.332 844.577L406.708 843.455L406.085 841.337L405.711 840.838L404.839 839.841L403.468 839.093L402.221 838.719L401.099 838.594L397.485 839.093L396.363 838.844L395.491 837.971L394.992 836.476V835.104V833.858L396.114 827.127V825.881L395.864 824.884L395.366 824.011L393.247 823.388L387.14 823.887L389.009 816.657L389.258 815.162V813.666L388.885 811.921L385.145 800.703L384.522 799.581L383.65 798.709L382.652 798.086L381.531 797.712L379.162 797.213L376.919 797.089H371.061L369.939 796.839L368.942 796.216L367.945 795.344L367.321 794.222L366.947 792.975L366.574 791.854L366.324 789.485L366.698 776.273L366.823 775.151L367.321 774.653L368.194 775.027L369.066 775.775L370.188 776.273L371.185 776.398L372.182 775.899L374.925 773.78L377.293 772.409L378.539 772.035L379.661 771.786H380.907L386.89 772.409H387.638L388.386 772.16L389.383 771.786L390.38 771.038L391.128 770.041L391.627 768.919L393.496 763.061V761.69L393.122 760.319L390.879 756.455L390.629 755.333L390.505 753.838V752.466L392.125 744.988L392.25 743.866V742.744L391.876 741.498L391.253 740.376L390.38 739.379L389.757 738.881L389.009 738.507L387.887 738.382L385.644 738.507L383.276 739.504L388.635 727.663L389.508 724.796L389.757 720.807L390.256 719.187L391.003 717.691L392.25 716.569L398.607 712.082L399.728 710.961L400.975 709.216L401.349 707.845L401.099 706.473L400.476 705.476L399.105 704.105L398.731 702.36L398.607 700.865L401.224 692.015L402.221 693.635L407.706 704.978L408.578 706.224L409.575 707.097L410.697 707.72L411.943 708.094L413.439 707.969L415.184 707.471L418.175 705.85L419.92 704.479L433.631 692.14L444.226 686.281L445.721 685.035L447.84 682.916L449.211 682.043L450.707 681.42L452.577 681.046L455.942 680.922L456.815 680.797L457.812 680.423L461.177 679.052L462.922 678.554L465.166 678.18L466.661 678.304L468.157 678.554L471.522 679.8L473.143 679.675L475.012 679.052L483.488 674.066L489.222 671.823L497.074 678.927L499.941 682.417L501.686 685.16L504.927 689.397L509.289 694.383L510.037 695.754L510.411 697.001L510.536 697.998L510.411 699.12V699.369L510.037 700.491L509.538 701.488L506.422 706.598L505.425 708.717L503.306 718.564V719.935L503.68 721.804L504.553 723.176L507.544 726.79L512.779 735.515L533.968 755.084L534.841 755.707Z" fill="#506754"/>
<path d="M387.14 823.887L393.247 823.388L395.366 824.011L395.865 824.884L396.114 825.881V827.127L394.992 833.858V835.104V836.476L395.491 837.971L396.363 838.844L397.485 839.093L401.1 838.594L402.221 838.719L403.468 839.093L404.839 839.841L405.711 840.838L406.085 841.337L406.708 843.455L407.332 844.577L408.453 845.948L409.575 846.572L410.822 846.946L419.297 847.07L420.544 847.319L422.039 848.192L423.161 849.189L423.784 850.435L424.158 851.557L424.906 852.928L425.779 854.299L430.764 859.534L432.136 860.407L433.257 860.905H434.379L435.376 860.407L436.124 859.659L436.623 858.537L439.115 849.189L440.237 846.946L440.985 845.824L441.982 844.827L444.226 843.206L446.719 841.711H447.093L449.212 842.084L449.959 842.957L450.209 843.954L450.084 846.322L450.333 847.693L451.206 849.189L455.444 852.554L456.815 853.925L457.563 855.047L459.183 858.662L460.055 859.784L461.053 860.532L465.166 862.027L466.288 863.024L467.16 864.146L470.027 868.384L471.647 870.877L469.528 872.248L466.288 874.99L464.916 876.236L462.299 879.477L462.174 879.726L465.166 880.724L466.288 881.596L466.661 882.469L466.786 882.718L466.661 883.84L465.415 884.463L464.169 884.837L462.798 885.335L461.676 886.333L461.302 887.33L461.427 888.701L461.053 889.822L459.931 892.066L459.681 893.188L459.806 894.185L460.305 895.057L460.554 896.304V897.55L460.305 898.672L459.432 900.791L459.058 902.162L459.308 903.159L460.429 905.278L461.053 907.397L461.676 907.896L463.67 908.394L464.293 908.893L464.667 909.516V910.264L464.543 910.762L464.044 911.136L463.545 911.386L463.047 911.635L462.299 912.881L462.424 913.629L462.922 914.502L463.296 915.748V915.873L462.922 916.87L462.424 916.995L462.05 917.119L460.803 916.745L459.806 916.496L458.56 916.247L457.812 916.496L457.563 917.244L457.438 918.49L457.313 919.487L455.942 923.227L455.194 924.099L454.197 924.847L454.073 924.972L451.704 926.343L450.957 926.717L450.333 926.841L448.838 927.091L448.214 927.34L448.09 928.088L448.214 928.96V929.833L447.84 930.705L446.345 931.702L444.475 932.45L444.101 932.7L441.982 933.447L441.858 933.198V931.578V931.204L441.484 930.581L442.232 928.836L441.858 927.714L439.24 924.847L438.617 923.476L438.492 922.479V919.986L439.115 917.618V916.621L438.118 916.371L438.492 915.873L437.869 915.25L437.37 914.377L437.246 913.629L437.744 913.255L437.495 912.632L435.999 911.261L435.626 910.887L434.878 909.89L433.631 908.519L433.257 908.145L431.637 907.272L431.014 907.148L430.391 907.522L428.646 904.904L429.393 902.411L429.019 901.539V898.797L428.77 897.8L428.272 897.55L427.648 897.176L427.524 896.553L427.025 896.055L426.028 895.93H424.906H424.158L423.535 895.307L423.037 894.434L422.289 892.814L422.039 892.066L421.79 890.072L421.541 889.324L421.042 888.825L418.674 887.828L418.799 888.825L419.173 889.698L420.17 891.318L419.048 891.941L419.547 895.681L419.048 896.678L418.674 895.556V891.692L418.425 890.446L417.677 888.327L416.804 880.724L416.431 879.353L416.181 878.355L416.555 875.489L416.431 874.367L416.057 872.996L415.683 872.497L415.184 872.373L414.561 872.248L414.187 872.123L413.938 871.874L413.813 871.375L413.439 870.752L407.706 865.767L407.207 865.642L407.082 865.891L406.708 865.393L406.085 864.271L405.088 862.775L404.714 861.778L404.465 861.279L404.091 861.155L402.845 861.404L402.346 861.279L402.097 860.532L401.847 860.033L399.479 857.665L399.355 857.789L399.105 857.914L398.607 858.039H398.357L397.859 857.54L396.238 855.172L395.615 854.798L392.499 851.807L391.253 852.305L389.258 850.934L388.012 851.059L387.514 849.563L386.641 848.69L385.395 847.818L384.397 846.821L382.154 843.954L381.78 842.957L381.905 842.209L382.029 841.586L381.905 841.212L381.281 840.963L380.783 840.838V840.339V839.841L380.658 839.467L378.415 837.473L377.542 836.226L378.041 835.229L377.791 834.855L378.789 832.487L379.287 831.49L380.16 830.493L381.157 829.869L384.522 828L385.519 827.003L386.142 826.13L387.14 823.887ZM409.451 914.626V915.374L409.326 916.371L408.952 917.618L409.077 918.615L409.575 920.235L409.077 921.357V921.482L407.83 921.357L406.335 919.612L405.088 919.113H403.966L403.343 918.49L404.963 917.867L405.836 917.244L405.462 915.997L404.091 915.25L402.72 915.499L401.1 915.623L399.978 915.873L398.981 916.496L398.108 916.995L397.111 916.621L395.865 915.499L394.992 914.626L393.746 914.377L392.375 913.38L391.004 912.258L390.38 911.136L390.006 909.391L389.134 908.768H388.137L387.514 908.644L387.638 908.27V907.023L386.766 906.026L386.267 904.904L386.392 903.907L387.14 904.156L387.514 904.53L388.137 905.029L390.256 906.026L391.377 907.397L392.001 908.145L392.125 909.516V910.139L393.122 911.261L393.995 912.009L394.369 912.258L396.363 912.009L396.986 913.131H397.983L399.105 912.757H400.102L400.726 913.38V914.003H401.349L402.969 913.38L401.473 913.006L400.601 911.76L401.349 910.762L401.723 909.142L402.097 908.644L402.845 908.519L403.094 908.644L403.592 908.893L405.088 909.765V910.638L405.836 911.884L405.711 912.507L407.082 912.632L407.456 913.754L409.451 914.626ZM395.117 909.765L394.369 909.142L393.496 908.145L392.125 906.4L391.004 904.78L390.63 904.156L391.253 903.658L392.499 903.533L393.496 903.284L394.12 902.661L394.618 901.664H395.241L395.366 901.788L395.615 900.666L395.241 899.295L394.493 898.921L393.746 898.547H393.122L391.876 898.298L391.253 898.174L391.004 897.924L391.502 897.55L392.001 897.301L392.125 897.8L393.87 897.924L395.241 898.547L396.114 899.545L396.238 899.794L396.488 901.29V902.411L396.238 903.658L396.488 904.655L398.233 905.029L398.731 906.275L396.488 906.4L395.865 907.148L396.114 908.145L397.485 908.644L398.233 909.017L399.23 909.516L399.604 910.887V911.51L397.983 910.513L395.989 910.015L395.117 909.765Z" fill="#506754"/>
<path d="M14.4585 202.17L19.0703 202.045L20.8153 201.671L22.6849 201.796L27.0474 202.918L34.7752 203.666L36.1463 203.416L37.0188 202.918L38.8884 201.048L40.7581 200.176L43.0017 199.428L54.0948 197.309L61.1995 196.81L65.4373 196.063H68.9273L79.5219 198.68L80.7683 199.303L83.1365 200.924L84.8815 202.544L98.7168 220.617L99.0908 220.991L99.4647 221.24L101.708 221.988H102.955H103.827L109.81 219.745L122.648 216.878H126.886L130.002 217.376L138.228 220.119L142.716 220.991L151.939 221.614L153.435 221.24L154.681 220.617L155.554 219.495L156.177 218.249L158.421 212.64L159.044 211.394L159.792 210.147L160.913 209.15L164.528 206.906L167.893 203.666L169.015 203.292L170.262 203.541L171.259 204.289L171.757 205.535L172.007 206.906L171.508 216.753L171.633 222.237L172.007 225.727L172.63 228.345L173.502 230.464L174.126 231.71L174.998 232.957L175.871 234.079L179.485 237.07L181.978 238.566L187.836 240.56L191.202 241.308L201.921 242.43L203.915 242.305L205.66 241.682L207.031 241.059L208.776 240.56L210.023 240.809L211.892 241.931L213.014 242.305L214.011 242.43H216.379L217.875 246.044L218.748 247.041L219.869 247.789L221.24 247.914L222.487 247.789L223.858 247.166L229.467 244.299L231.087 243.925L232.957 243.551L234.328 243.676L235.2 243.925L235.948 244.299L238.067 246.044L239.064 247.291L239.937 247.914L241.183 248.412L258.508 252.526L261.5 253.647L263.494 254.769L264.616 256.14L264.865 256.39L266.112 257.636L267.732 258.758L270.973 260.378L277.329 265.613L280.446 268.729L281.193 269.976L281.692 271.347L287.55 295.153L288.173 296.275L289.046 297.397L289.794 298.269L291.913 299.64L298.394 303.13L299.64 304.252L300.762 305.623L301.012 306.87L300.887 308.116L300.388 309.363L299.516 310.609L298.519 311.731L291.913 317.464L289.42 320.83L287.799 324.07L284.683 333.793L283.686 335.787L282.814 337.033L281.941 337.656L280.196 334.914L279.199 334.166L277.953 333.419L276.831 333.294L254.395 336.659L249.036 336.784L246.418 336.41L244.299 335.662L237.818 330.676L231.087 328.184L229.093 327.186L227.846 326.065L226.974 323.696L226.351 322.45L225.104 321.453L224.107 321.328L223.484 321.951V323.073L223.733 324.195L223.858 325.441L223.609 326.314L222.238 326.937L220.991 326.813L219.62 326.439L215.631 324.569L213.886 323.946H212.64L211.394 324.07L210.646 324.444L205.909 328.308L204.414 329.305L202.793 329.679L201.672 329.305L201.173 328.433V327.311L201.298 326.065V324.818L200.924 323.696L200.051 322.699L196.686 320.58L195.813 319.583L195.439 318.586L195.315 317.589L195.439 317.09V316.841V316.592L195.315 315.844L194.816 314.972L193.944 314.348L192.822 313.85L191.575 313.725L186.216 313.476L183.848 313.102L182.352 312.229L181.106 311.232L178.114 306.62L176.992 304.502L175.995 302.009L174.499 296.524L174.001 295.527L173.253 294.406L171.882 293.408L170.885 293.034L169.888 293.159L159.792 298.643L158.67 299.017L157.423 299.267L156.177 299.142L153.933 298.768L152.313 298.145L147.826 295.278L145.333 294.156L143.713 293.907H142.217L141.095 294.281L127.26 300.887L121.028 302.383L119.906 303.006L118.909 303.878L118.66 304.875L118.909 305.873L119.781 306.496L120.903 306.62L124.393 305.997L125.39 305.873L126.138 305.997L127.011 306.371L128.008 306.994L128.756 307.867L129.254 308.615L129.753 309.737L130.501 313.351L130.625 314.972L130.501 318.337L129.379 326.439L129.504 329.056L129.753 330.427L130.127 331.798L130.625 333.045L131.373 334.291L132.246 335.413L133.367 336.535L134.614 337.407L135.86 337.906L142.092 339.775L143.214 340.399L144.211 341.52L144.71 342.891L144.835 344.387L144.461 345.634L144.087 346.631L140.846 351.99L139.849 354.483L139.6 355.73L139.475 356.976L139.6 358.222L139.973 359.469L143.09 365.701L143.837 368.194L144.461 370.687L144.71 371.684L145.208 372.432L145.956 372.182L147.951 370.562L149.072 370.188L150.319 370.313L159.916 375.922L160.789 376.545L161.038 376.919L161.287 377.043L162.035 380.409L162.534 381.655L163.157 382.777L164.154 384.023L171.134 389.882L172.131 391.003L172.879 392.125L173.752 393.87L175.372 398.357L177.242 405.587L177.74 406.833L177.865 406.958L178.239 407.082L179.111 407.332L182.477 407.581L183.598 407.706L184.346 408.204L185.094 408.827L185.468 409.949L185.593 411.071L183.598 424.657L184.346 444.226L184.097 445.098L183.598 446.22L182.477 447.716L181.23 448.713L179.984 449.336L178.613 449.585L175.995 449.461L173.627 448.962H172.381L171.259 449.087L170.012 449.835L168.891 451.081L167.395 452.951L166.148 454.197L164.777 455.07L163.531 455.568L162.409 455.942L160.29 456.191H155.928L154.806 456.441L153.684 456.939L152.812 457.936L152.188 458.934L151.815 460.055L151.191 463.545L151.067 463.919L147.701 458.934L144.336 454.322L142.84 452.203L142.716 450.583L142.965 450.084V449.585L142.84 448.962L142.716 448.588L142.342 448.339L141.594 449.087H141.095L140.098 448.588L139.475 447.591L138.478 445.472H139.849L141.095 445.721H142.342L143.588 445.223L144.336 444.226V441.234L145.582 438.741L145.458 437.495L144.336 435.002L144.087 433.507L144.336 430.017V428.645L143.962 427.399L143.588 426.277L142.965 425.155L141.843 423.909L141.22 423.286L140.721 422.912L140.223 422.413L139.724 421.292L139.226 420.918L138.104 420.045L137.107 418.799L136.234 417.552L135.486 416.181L135.362 415.558L135.237 414.187L135.112 413.688L134.863 413.19L133.991 412.317L133.741 411.694L134.614 411.071L133.866 409.7L131.498 407.207L131.124 406.459L130.251 403.966L129.877 403.468L129.254 402.969L128.88 402.72V402.346V401.598L128.756 401.224L128.257 400.601L127.509 398.856L127.135 398.233L126.387 397.734L124.767 396.986L124.144 396.612L122.025 393.247L120.654 391.502L119.532 391.377L119.407 392.125L119.781 392.748L119.906 393.372L119.283 393.746L118.66 393.496L117.039 392.374L116.167 392.125L115.668 391.751L114.546 390.256L114.173 389.632L114.048 389.258L114.173 388.012L114.048 387.638L113.425 387.513L113.051 387.139L112.428 385.644L112.303 384.273L112.801 382.902L113.923 381.655L114.671 380.409L114.92 378.788L114.671 377.043L114.173 375.672L112.926 374.301L111.181 373.429L109.311 372.93L107.566 372.806L105.572 372.058L104.326 370.437L100.836 362.211L99.5893 360.217L97.3458 356.976L93.3572 347.129L89.1194 339.526L86.5019 336.161L83.3858 333.419L82.0147 331.798L81.1422 329.181L79.5219 326.314L78.4001 322.575L77.5276 322.824L76.7798 322.201L75.4087 320.082L71.9187 316.966L67.6809 311.357L66.1852 308.365L65.9359 307.867V307.244L66.0605 306.745L66.5591 305.873L66.6837 305.374L66.4344 304.626L65.0634 302.757L60.5762 297.272L58.0834 295.527L57.3355 294.904L56.0891 293.408L54.5934 291.04L52.973 289.42L50.9788 285.556L50.3556 284.06L50.2309 282.814L50.1063 280.57L49.857 279.448L49.3584 278.701L47.6134 276.706L46.6163 275.086L45.2452 271.471L44.1234 269.851L43.6249 269.477L42.5031 269.103L42.1292 268.854L41.8799 268.355L41.6306 267.607L41.0074 266.361L40.7581 264.741L40.2595 263.868L37.5174 260.627L36.6449 259.132L36.1463 258.633L35.2738 258.135L32.6563 256.14V256.514H32.2824L31.7838 255.766L32.407 255.143L33.6535 254.52L34.526 254.021L35.1492 254.271L35.0245 253.897L34.526 253.024L34.2767 252.9L32.781 252.526L32.2824 252.276H31.9085V252.775H31.6592L31.4099 252.401L31.036 251.902L30.662 251.653L30.2881 251.528H29.291H28.917L28.1692 250.781L25.6763 249.036L25.1778 249.41H24.5546H23.9314L24.1806 249.659L24.3053 250.033L24.5546 250.282L24.056 249.908L23.4328 249.534L22.8096 249.285L22.1864 249.659L21.6878 250.033L19.9428 250.531L19.5689 250.781L19.1949 251.03L19.0703 251.528H18.6964V251.03H18.3224L17.5746 251.279L16.4528 251.03H15.4557L14.7078 251.902L14.4585 251.653L14.2092 251.528V251.03H14.7078V250.656L14.4585 250.157L14.7078 249.908L15.2064 249.534L15.7049 249.41L15.2064 249.16H14.7078H14.0846L13.586 249.41V249.783H13.96V250.282L13.3367 250.407L12.9628 250.905L12.4642 251.902L12.215 251.653H12.0903L11.9657 251.528H11.7164L11.9657 251.155L12.215 250.781L12.7135 250.531L13.2121 250.282V250.033V249.783V249.41H12.4642L11.841 249.534L11.4671 249.908L11.3425 250.656L11.0932 250.407H10.9685L10.8439 250.531L10.5946 250.656V250.407V250.033V249.783H10.3453V250.282H9.84676L9.59747 249.783L9.34818 249.41L9.0989 249.534L8.72497 249.783L8.2264 249.41L8.10176 249.285L7.85247 248.786L7.60319 248.537L7.22926 247.789L7.10462 247.914L6.97998 248.038L6.7307 248.288L6.48141 248.537L5.8582 248.038L5.60891 248.288V248.911L5.35963 249.41L4.9857 249.659L4.23785 250.033L3.98856 250.282V250.656L5.11034 251.528V251.902L4.73641 252.027H4.61177L4.48713 252.152L4.36249 252.276L3.98856 251.902L3.73927 253.024L3.61463 253.772L3.2407 254.271L2.11892 254.395L2.24356 254.146H2.36821L2.49285 254.021L2.11892 253.523L1.86964 252.65L1.745 251.902V250.407L1.37107 250.033L0 250.531L0.249286 249.783L0 249.41L0.747853 248.288L1.24642 247.789L1.745 247.54V247.291L2.11892 247.166L2.49285 246.667L2.86678 246.543L2.49285 246.044L2.61749 245.795L2.86678 245.546L3.11606 245.296H3.61463V245.546H3.48999H3.36535L3.2407 245.67L3.73927 245.92L4.23785 246.044L4.48713 245.92L4.73641 245.296H4.36249V244.798L3.98856 244.424L4.1132 244.05L4.48713 243.676L5.11034 243.551V243.177L4.86106 242.554L5.35963 239.812L5.60891 239.937L5.98284 240.061L6.23212 240.186L6.10748 240.061L6.23212 239.438L5.8582 239.563L5.73355 239.687L5.35963 239.438L6.48141 238.316L7.60319 236.322L8.47569 234.079L8.97426 231.212L10.096 229.591L10.47 227.846L10.8439 226.725L12.3396 224.107L11.9657 221.365L11.841 218.498L10.9685 215.631L11.9657 211.892L12.7135 209.898L13.586 208.278V207.904H13.2121L14.0846 206.408L14.2092 205.66L13.96 204.912V204.538L14.5832 202.669L14.4585 202.17ZM131.996 411.694L132.495 412.193L132.744 412.442H132.62L132.37 412.317H131.996V412.567L132.246 412.941L131.747 412.816L130.75 412.193L130.376 411.569L130.501 411.071H130.002L129.379 411.32L129.005 410.822L128.756 409.949H128.257L127.634 410.323L127.509 409.949L127.883 408.827L128.382 408.204H129.13L129.877 408.329L130.501 408.703L130.999 409.949L131.373 409.824L131.498 409.451L131.622 409.7L131.996 411.694ZM127.385 411.819L128.257 411.694L128.382 411.943L127.509 412.567L127.011 412.816L126.512 413.564L125.889 414.561L125.141 415.184L124.019 414.436L123.022 413.314L122.025 412.567L119.781 410.198L119.657 410.074L119.532 409.7V409.451L119.657 409.326V409.077L119.034 408.453L118.41 407.581L118.535 407.082L119.034 407.207L119.532 407.706L120.529 408.952L121.028 409.326L122.025 409.824L123.895 410.697L124.767 410.946H125.515L126.014 411.32L126.263 411.694H125.141L124.892 412.567L125.39 413.19L126.014 413.065L126.637 412.317L127.385 411.819ZM122.399 404.963L121.9 404.714L121.152 404.091L121.277 403.218L122.025 402.72L122.773 402.844L123.271 403.468V404.216L122.773 404.714L122.399 404.963ZM119.283 407.082L118.66 406.584H118.41L118.161 406.459L117.912 406.085V405.462L117.413 405.337L116.665 405.213L116.541 404.963L116.79 405.088L116.665 404.714L116.167 404.091L115.419 403.592H114.422L114.048 403.966L113.799 404.091L113.3 404.216L113.425 403.717L113.923 402.844L114.796 402.72L115.793 402.969L118.41 404.839L118.66 405.213L119.034 405.961L119.781 406.459L120.654 406.708L121.9 407.456L123.77 409.077L124.269 409.575L124.144 409.824L123.895 410.074L124.019 410.323L123.77 410.074L122.897 409.451L122.15 409.077L121.651 408.827L121.402 408.453L121.152 407.83L120.654 407.581L120.28 407.706L119.781 407.581L119.283 407.082ZM125.141 403.966V402.221L125.016 401.847V401.224L125.39 400.726L125.889 400.601L126.387 400.726L126.637 401.349V401.847L126.512 402.346H126.263L125.889 402.097V402.221L126.014 402.595V402.844H125.889L126.263 403.592L126.637 405.213L126.387 405.711L125.764 404.839L125.39 404.589L125.141 403.966ZM113.425 402.595V402.969L113.051 403.592L112.677 403.966L112.303 403.717L111.555 403.218L107.317 400.975L106.071 400.726L105.697 401.598L105.198 401.349L104.201 400.352L103.453 399.479L103.204 398.233L103.578 397.236L104.949 395.864L105.572 395.117L105.946 394.867L106.071 395.241L105.697 395.864L104.824 397.236L104.949 397.734L105.323 398.233L105.697 398.607H105.946L106.195 398.731L106.569 399.105L106.943 399.354L107.442 399.479L108.813 400.975L109.436 401.473H110.184L110.683 401.349L110.807 401.598V401.972L111.056 402.471L111.555 402.72L112.054 402.595L111.929 402.471V402.221L112.178 401.972L112.677 402.097L113.425 402.595ZM105.946 393.122V392.624L105.821 391.377L105.946 388.884L106.819 386.89L108.065 385.519L108.439 385.395L107.816 386.142L107.193 387.015L106.694 388.012L106.569 389.258L107.068 390.256L108.065 391.253L108.439 391.377L108.938 391.502L108.813 391.876L108.439 392.624L108.19 393.496L108.314 393.746V394.119L108.813 394.493L109.436 394.244L109.561 394.369L109.311 394.867L108.813 395.241L108.065 395.117L106.943 394.244L106.445 393.746L105.946 393.122Z" fill="#506754"/>
<path d="M151.067 463.919L151.191 463.545L151.815 460.055L152.189 458.934L152.812 457.936L153.684 456.939L154.806 456.441L155.928 456.191H160.29L162.409 455.942L163.531 455.568L164.777 455.07L166.148 454.197L167.395 452.951L168.891 451.081L170.012 449.835L171.259 449.087L172.381 448.962H173.627L175.995 449.461L178.613 449.585L179.984 449.336L181.23 448.713L182.477 447.716L183.598 446.22L184.097 445.098L184.346 444.226L183.598 424.657L185.593 411.071L185.468 409.949L185.094 408.827L184.346 408.204L183.598 407.706L182.477 407.581L179.111 407.332L178.239 407.082L177.865 406.958L177.74 406.833L177.242 405.587L175.372 398.357L173.752 393.87L172.879 392.125L172.131 391.003L171.134 389.882L164.154 384.023L163.157 382.777L162.534 381.655L162.035 380.409L161.287 377.044L161.038 376.919L160.789 376.545L159.916 375.922L150.319 370.313L149.072 370.188L147.951 370.562L145.956 372.182L145.209 372.432L144.71 371.684L144.461 370.687L143.837 368.194L143.09 365.701L139.974 359.469L139.6 358.222L139.475 356.976L139.6 355.73L139.849 354.483L140.846 351.99L144.087 346.631L144.461 345.634L144.835 344.387L144.71 342.891L144.211 341.52L143.214 340.399L142.092 339.775L135.86 337.906L134.614 337.407L133.367 336.535L132.246 335.413L131.373 334.291L130.625 333.045L130.127 331.798L129.753 330.427L129.504 329.056L129.379 326.439L130.501 318.337L130.625 314.972L130.501 313.351L129.753 309.737L129.254 308.615L128.756 307.867L128.008 306.994L127.011 306.371L126.138 305.997L125.39 305.873L124.393 305.997L120.903 306.621L119.781 306.496L118.909 305.873L118.66 304.876L118.909 303.878L119.906 303.006L121.028 302.383L127.26 300.887L141.095 294.281L142.217 293.907H143.713L145.333 294.156L147.826 295.278L152.313 298.145L153.933 298.768L156.177 299.142L157.423 299.267L158.67 299.017L159.792 298.643L169.888 293.159L170.885 293.034L171.882 293.408L173.253 294.406L174.001 295.527L174.499 296.524L175.995 302.009L176.992 304.502L178.114 306.621L181.106 311.232L182.352 312.229L183.848 313.102L186.216 313.476L191.576 313.725L192.822 313.85L193.944 314.348L194.816 314.972L195.315 315.844L195.439 316.592V316.841V317.09L195.315 317.589L195.439 318.586L195.813 319.583L196.686 320.58L200.051 322.699L200.924 323.697L201.298 324.818V326.065L201.173 327.311V328.433L201.672 329.305L202.793 329.679L204.414 329.305L205.909 328.308L210.646 324.444L211.394 324.07L212.64 323.946H213.887L215.632 324.569L219.62 326.439L220.991 326.813L222.238 326.937L223.609 326.314L223.858 325.442L223.733 324.195L223.484 323.073V321.952L224.107 321.328L225.104 321.453L226.351 322.45L226.974 323.697L227.846 326.065L229.093 327.187L231.087 328.184L237.818 330.677L244.299 335.662L246.418 336.41L249.036 336.784L254.395 336.659L276.831 333.294L277.953 333.419L279.199 334.167L280.196 334.914L281.941 337.656L282.938 340.149L283.188 341.396L283.312 342.891V344.263L282.814 346.381L282.565 347.129L280.695 350.744L279.947 352.489L280.072 353.985L280.57 355.231L281.692 356.228L282.814 356.602L284.06 356.727L286.553 356.228H287.924L289.046 357.225L289.544 358.472L289.669 359.718L286.678 379.91V381.655L286.927 383.151L288.547 389.757L289.544 395.74L289.046 411.569L289.295 413.19L289.918 414.561L290.666 415.683L291.539 416.555L292.162 417.054L293.159 417.552L294.281 417.926L295.527 418.051H296.774L298.02 417.802L311.357 413.065L314.099 412.691L320.456 412.816L322.824 412.567L323.946 412.317L324.943 412.068L325.691 411.694L326.688 411.196L327.685 410.448L328.807 409.451L332.671 404.465L333.917 403.343L335.413 402.471L337.283 401.847L338.778 401.473L348.002 401.1L363.084 403.468L367.695 404.714L369.066 405.213L376.171 406.958L378.539 407.706L379.536 408.453L380.409 409.575L380.783 411.071L381.032 412.442L379.91 427.898L380.16 429.269L380.658 430.64L381.655 432.26L382.902 433.257L384.148 433.88L391.128 435.75L392.001 436.124L392.499 436.623L392.624 436.747L393.621 438.368L394.493 440.611L397.36 451.829L398.357 454.197L399.105 455.319L399.978 456.191L404.59 459.681L404.714 461.676L403.966 464.293L403.343 466.038L403.218 466.288L400.726 469.528L399.853 470.899L399.479 471.896V472.769L399.604 473.143L400.352 475.137V476.508L400.227 478.752L399.23 483.239L398.607 493.335L398.731 498.695L391.751 497.697L388.261 497.822L387.015 498.445L386.018 499.193L385.27 500.315L385.021 501.437L385.145 502.683L386.516 506.547L386.766 507.793L386.89 509.04L386.766 511.657L386.392 513.028L385.644 514.649L384.273 516.768L382.902 518.139L381.655 519.136L372.058 523.374L365.078 527.238L362.71 529.107L361.089 530.852L360.466 532.223L360.84 533.47L361.837 534.467L362.959 535.339L368.817 538.58L369.69 539.577L370.064 540.824L369.44 542.444L368.443 543.566L367.197 544.314L360.965 546.557L359.469 547.554L357.849 548.925L350.37 556.529L335.039 568.619L332.92 571.112L329.056 577.095L327.685 578.59L326.439 579.089L325.068 579.214L316.841 576.596L315.47 576.471L313.85 576.845L311.606 578.216L306.122 582.828L305 583.576H304.751L303.38 583.95L302.258 584.075H301.012L297.522 583.576H297.272L296.151 582.828L295.527 581.831L295.278 580.709L295.527 579.588L296.026 577.219L296.4 574.726L296.275 573.48L296.026 572.234L295.527 570.987L294.655 569.865L293.658 568.993L292.661 568.245L291.04 567.373L287.426 566.251L286.428 565.752L285.681 564.88L285.556 563.758L285.805 562.512L288.797 555.532L289.046 554.41L289.42 551.668V549.923L289.171 548.801L288.797 547.679L288.173 546.682L287.176 545.809L286.055 545.56L284.933 545.435L279.822 546.059L268.355 549.673L264.242 550.421L262.996 549.923L262.497 548.925L262.248 546.557L261.999 545.435L261.5 544.438L260.378 543.815H258.882L253.149 544.812L251.03 544.937L249.16 544.688L247.914 543.815L246.667 542.818L242.554 537.832L238.192 533.968L237.444 533.221L235.2 529.606L234.079 528.609L232.708 528.11L231.087 528.235L227.348 529.107L220.617 529.606L218.872 529.855L218.748 528.609L218.623 526.988L218.249 525.742L218.124 524.62L217.252 523.748L216.878 523.124L216.629 522.127V521.13L215.382 521.878L214.884 521.504H214.385L214.51 522.501L215.008 523L216.379 523.498V523.872L214.51 523.748L213.388 522.626L213.263 519.759L210.895 516.643L209.649 512.655L209.275 511.283L209.025 509.788L208.652 508.417L207.779 507.42L207.28 507.17L206.657 507.046L205.785 506.672L205.286 506.048L205.037 505.301L204.663 504.179L203.915 503.431L203.043 503.057L202.17 502.808L201.422 502.434L200.924 502.06L200.425 501.063L199.553 500.066L199.054 499.692L198.182 499.068L197.184 498.695L196.187 498.57L194.941 497.697L194.318 497.199L193.196 496.202L192.199 494.831L191.077 494.083L190.204 493.21L188.584 491.59L188.086 491.341H187.712L187.213 491.465L186.714 491.839L185.593 490.967L184.72 490.219L182.477 488.848L180.856 487.601L181.106 486.854L182.103 486.23L183.349 485.981L182.851 485.482L182.103 485.732L181.106 486.23L180.607 485.482L181.23 484.485L181.479 483.613L180.981 483.364L180.607 483.737L179.859 483.862L179.61 484.485L179.859 484.735L180.108 485.358V486.106L180.233 486.604L179.859 486.978L178.737 486.48L177.117 486.978L174.624 485.109L173.876 484.361L171.757 482.74L171.259 481.494L170.636 480.995L169.638 480.621L168.766 479.998L167.893 479.25L166.896 478.627H165.65L165.027 478.502L164.154 479.126L164.03 479.998L164.279 481.12L162.035 481.245L161.412 480.372L159.916 479.624L158.67 479.998L157.423 478.752L156.676 477.381L155.554 475.76L153.56 474.14L152.936 472.146L153.56 470.899L153.933 471.024L154.931 471.772L155.429 470.775L155.055 469.777L151.067 463.919Z" fill="#506754"/>
<path d="M383.275 739.504L385.644 738.507L387.887 738.382L389.009 738.507L389.757 738.881L390.38 739.379L391.253 740.376L391.876 741.498L392.25 742.744V743.866L392.125 744.988L390.505 752.467V753.838L390.629 755.333L390.879 756.455L393.122 760.319L393.496 761.69V763.061L391.627 768.919L391.128 770.041L390.38 771.038L389.383 771.786L388.386 772.16L387.638 772.409H386.89L380.907 771.786H379.661L378.539 772.035L377.293 772.409L374.924 773.78L372.182 775.899L371.185 776.398L370.188 776.273L369.066 775.775L368.194 775.027L367.321 774.653L366.823 775.151L366.698 776.273L366.324 789.485L366.573 791.854L366.947 792.975L367.321 794.222L367.944 795.344L368.942 796.216L369.939 796.839L371.061 797.089H376.919L379.162 797.213L381.531 797.712L382.652 798.086L383.649 798.709L384.522 799.581L385.145 800.703L388.884 811.921L389.258 813.666V815.162L389.009 816.657L387.139 823.887L386.142 826.13L385.519 827.003L384.522 828L381.157 829.87L380.159 830.493L379.287 831.49L378.788 832.487L377.791 834.855L377.168 833.983L376.794 833.36L376.669 832.612L376.42 832.362L375.922 832.113L375.548 831.864L375.797 830.991L374.8 830.867L373.678 830.493L373.927 830.243V830.119L374.052 829.994L374.426 829.745L374.052 829.122L373.553 828.748H372.93L372.182 828.997L372.556 828.498L372.806 827.875L372.93 827.377L372.556 827.003L372.93 826.255L372.556 825.881L371.933 825.756L371.061 825.881L371.185 825.133L371.061 824.011L370.687 822.89L370.188 822.142L369.939 821.518L369.565 819.4L369.44 818.901L369.316 818.402L369.191 815.411L369.066 815.037L368.942 814.788L368.692 814.663H368.318L368.069 814.414L367.944 813.915V813.417L367.82 813.043L365.826 811.672L365.576 811.298L365.452 810.675L365.202 810.051L364.828 809.428L363.956 809.054L363.707 808.805L363.457 808.556L363.333 808.431L362.959 808.556L362.46 809.054L362.211 809.179L361.588 808.93L361.089 808.556L360.466 808.182L360.092 807.559L358.596 804.442L357.973 803.57L357.35 802.822L356.976 802.074V801.326L357.101 800.205L358.347 796.465L358.596 795.344L358.721 794.97L358.97 794.72L359.095 794.346L358.596 793.599L358.347 793.474L357.101 792.851L354.857 792.228L354.358 790.483V790.109L353.237 788.738L352.987 788.613V787.99L353.112 787.366L353.361 786.245L353.611 785.621L353.86 785.123L354.109 784.749L354.234 783.752L354.483 782.505L355.231 781.134L354.732 780.262L353.735 779.639L352.613 779.14L350.37 778.517L349.373 777.769L348.874 776.273L348.002 775.027L347.877 774.528V773.905L348.251 772.534V772.035L347.877 770.914V770.415L347.628 769.917L346.631 769.293L346.381 768.795L346.132 767.673L345.633 767.05L344.761 766.551L343.265 765.429L343.39 765.18L343.515 764.557L343.39 763.934L342.767 763.061L342.642 762.563V761.939L342.268 761.067L342.393 760.444L342.767 759.82L343.265 759.447L343.515 758.948L343.141 758.574L343.265 757.951L343.141 757.328L342.767 756.829L342.642 756.081L338.155 754.461L336.784 753.838L334.042 750.971L332.795 750.223V749.849L333.419 749.974L334.665 750.722L334.914 748.353L334.79 745.487L334.416 744.24L331.923 740.626L330.926 740.002L328.184 739.628H327.062L326.563 740.252L327.186 741.623L326.439 740.999L325.691 739.753L325.317 738.631L325.192 738.133L324.444 737.634L322.201 734.393L320.58 733.396L320.206 733.022L320.331 732.648L320.954 731.153L320.58 730.031L319.957 729.408L318.337 728.784L316.342 727.538L315.844 727.289L315.345 726.541L314.847 726.416L314.348 726.042L313.102 724.173L312.603 724.048L311.357 723.674L310.858 723.55L309.861 723.3L308.739 722.677L306.246 720.683L304.377 718.564L304.751 717.691L303.878 717.068L302.383 716.694L300.762 716.445L300.388 716.071L299.89 715.448L299.142 714.575L298.643 714.077V713.827L298.145 713.453L296.4 711.833L295.527 711.459H294.281L293.034 711.709L291.913 712.082L291.414 712.581L290.168 712.082L287.924 710.711L286.678 710.213V710.961L287.051 711.335L287.55 711.584L287.924 712.082L288.173 712.207L288.672 712.456L289.046 712.83L288.672 713.08L287.799 712.83L282.44 709.59L281.692 708.842L281.069 708.592L279.947 708.218L278.95 707.72L278.202 706.1L277.205 705.102L274.338 702.859L272.842 701.363L269.726 696.253L268.604 695.38V694.882H269.103H269.602L269.851 694.632L270.1 694.134L269.228 694.009L268.604 693.511L267.358 692.389L266.984 691.766L266.61 690.021L266.361 689.397L264.616 687.403L264.491 686.406L265.364 685.035L263.494 684.412L262.746 684.287L262.871 684.786L263.12 685.035L263.369 685.284L263.743 685.534L262.746 685.16L261.5 684.412L260.877 683.539L261.251 682.667L260.752 682.418L260.503 682.044V681.67L260.877 681.171L261.126 681.545L261.5 681.919L261.998 682.168L262.746 682.293L262.497 681.67L262.372 681.296V680.922L262.248 680.423H261.998L261.624 680.548L261.251 680.299L260.503 679.301H260.253L260.129 680.299L259.007 679.551L257.387 678.429L256.389 676.933V675.562L256.639 675.936L257.013 676.31L257.387 676.435L257.511 676.061L257.387 675.313L257.013 675.064L256.639 674.939L256.265 674.69L255.766 674.44H255.143L254.644 674.69L254.021 674.814V674.565L252.526 672.321L252.152 671.449L252.027 670.452V669.081L251.902 668.582L251.154 668.084L250.905 667.46V666.837L250.656 666.588L250.282 666.463L248.038 664.843L247.415 664.22L247.166 662.599L246.667 661.478L246.543 660.854L246.667 660.48L247.166 659.733L247.291 659.359L246.917 658.611L244.798 655.495L244.174 654.996L242.429 652.254L246.667 648.515L247.291 647.144L247.415 645.274L246.917 643.654L246.169 642.781V642.407L246.667 641.909V641.161L245.795 639.291L245.047 640.413L244.548 640.662L244.05 639.914L243.551 638.793L243.925 638.419L243.053 637.172L242.803 635.427L242.928 633.682L242.803 632.062L242.305 630.566V629.694L243.427 629.32L243.676 628.946L243.925 628.198V627.201L243.551 626.578L243.177 627.699L242.803 628.323L242.429 628.572H241.682L241.557 628.323V627.824L241.308 627.326L240.934 627.076L240.809 626.827L240.56 626.578L240.311 626.204L240.061 625.581V624.708L239.812 624.209L239.189 623.836L239.064 623.586L238.815 623.088V622.963L236.945 620.595L235.325 617.229L234.452 612.244V611.122L235.948 610.623L237.319 612.493H238.441L238.69 611.247V610.125L238.815 609.502L238.939 609.252L239.687 608.754L239.812 608.504L239.937 607.383L240.435 605.015L240.56 603.893H240.311L239.438 605.887L239.189 605.015L239.313 604.391L239.687 603.768L239.812 602.896V600.527L240.311 598.907L242.056 596.913L242.554 594.42L242.928 593.797L243.427 593.423L243.925 592.8L244.673 591.179L245.546 590.182L245.795 589.933V589.185L245.421 588.562L244.922 588.188L244.299 588.312L243.925 588.936L243.551 590.556L243.177 591.179L241.931 591.428L241.806 589.684L242.554 587.315L242.056 584.075L242.429 580.834L242.056 579.214L241.682 578.466L240.186 576.471L238.815 573.231L237.693 571.486L237.319 570.489L237.444 569.865L238.939 568.494L238.815 567.996L236.197 565.129L235.2 564.256L234.702 564.506L234.826 564.88L235.823 565.877L236.197 566.375L236.322 566.999L236.447 567.622L236.571 568.245L236.945 568.744L236.571 569.242L235.823 567.497L234.328 565.254L232.832 563.633L230.09 558.523V557.775L231.71 558.648L233.455 562.511L234.328 562.761L234.951 563.135L235.45 563.01L235.823 562.636L236.197 562.013L235.574 561.265L234.702 559.52L234.203 559.146L233.829 559.021L233.331 558.648L232.957 558.024L232.832 557.401L232.333 556.404L231.336 556.03L230.09 555.656L229.217 555.158L228.096 555.407L227.348 554.534L226.226 552.041L226.849 551.418L227.223 550.67L227.597 549.798L227.722 548.925L227.597 547.305L227.348 546.433L227.223 545.685L226.6 545.435L226.101 546.308L225.478 544.937L224.481 543.69L223.484 541.821L222.611 540.574L222.113 539.328L221.49 538.455L221.365 537.708L220.866 536.586V535.838L220.492 534.093L219.745 532.722L219.121 530.977L218.872 529.855L220.617 529.606L227.348 529.107L231.087 528.235L232.707 528.11L234.078 528.609L235.2 529.606L237.444 533.22L238.192 533.968L242.554 537.832L246.667 542.818L247.914 543.815L249.16 544.688L251.03 544.937L253.149 544.812L258.882 543.815H260.378L261.5 544.438L261.998 545.435L262.248 546.557L262.497 548.925L262.995 549.923L264.242 550.421L268.355 549.673L279.822 546.059L284.933 545.435L286.054 545.56L287.176 545.809L288.173 546.682L288.797 547.679L289.17 548.801L289.42 549.923V551.668L289.046 554.41L288.797 555.531L285.805 562.511L285.556 563.758L285.68 564.88L286.428 565.752L287.425 566.251L291.04 567.373L292.66 568.245L293.658 568.993L294.655 569.865L295.527 570.987L296.026 572.234L296.275 573.48L296.4 574.726L296.026 577.219L295.527 579.587L295.278 580.709L295.527 581.831L296.15 582.828L297.272 583.576H297.521L301.011 584.075H302.258L303.38 583.95L304.751 583.576H305L306.122 582.828L311.606 578.216L313.85 576.845L315.47 576.471L316.841 576.596L325.067 579.214L326.439 579.089L327.685 578.59L329.056 577.095L332.92 571.112L335.039 568.619L350.37 556.529L357.848 548.925L359.469 547.554L360.964 546.557L367.197 544.314L368.443 543.566L369.44 542.444L370.063 540.824L369.689 539.577L368.817 538.58L362.959 535.339L361.837 534.467L360.84 533.47L360.466 532.223L361.089 530.852L362.709 529.107L365.078 527.238L372.058 523.374L381.655 519.136L382.902 518.139L384.273 516.768L385.644 514.649L386.392 513.028L386.765 511.657L386.89 509.04L386.765 507.793L386.516 506.547L385.145 502.683L385.02 501.437L385.27 500.315L386.018 499.193L387.015 498.445L388.261 497.822L391.751 497.697L398.731 498.695L398.233 504.303L398.357 508.043L398.731 509.164L399.354 510.037L399.978 510.536L401.972 511.782L403.094 512.654L404.215 513.776L405.213 515.646L408.079 524.869L409.45 527.985L409.949 529.481L411.569 537.832L418.425 554.41L419.048 555.158L419.796 556.03L420.793 556.903L421.915 557.65L423.161 558.149L424.283 558.523L426.277 558.897L434.628 558.772L446.345 559.769L448.713 560.268L450.084 560.766L451.33 561.39L452.826 562.636L453.574 563.883L453.823 565.129L453.574 566.126L452.826 568.619L452.452 574.602L452.577 575.973L452.951 577.469L454.072 579.712L455.194 580.709L456.441 581.457L458.809 582.33L460.055 582.454L461.302 582.33L467.658 580.585L468.78 580.335L470.027 580.46L476.383 581.706L477.505 581.956L478.502 582.579L479.375 583.451V583.701L477.879 592.301V594.669L480.621 614.113V615.235L480.372 616.482L479.998 617.603L479.5 618.85L478.876 619.972L477.256 622.091L476.633 623.212L476.134 624.334L476.009 625.456L476.757 635.178L476.383 637.671L474.14 646.022V647.144V648.39L474.514 649.637L475.137 650.758L489.222 671.823L483.488 674.066L475.012 679.052L473.143 679.675L471.522 679.8L468.157 678.554L466.661 678.304L465.166 678.18L462.922 678.554L461.177 679.052L457.812 680.423L456.815 680.797L455.942 680.922L452.577 681.046L450.707 681.42L449.211 682.044L447.84 682.916L445.721 685.035L444.226 686.281L433.631 692.14L419.92 704.479L418.175 705.85L415.184 707.471L413.439 707.969L411.943 708.094L410.697 707.72L409.575 707.097L408.578 706.224L407.705 704.978L402.221 693.635L401.224 692.015L398.108 689.397L397.111 689.024L395.74 688.774L394.618 689.148L389.632 692.015L388.386 692.514L387.264 692.887H381.531L379.786 693.137L378.29 693.511L375.672 694.632L374.052 695.131L372.93 695.006L372.307 694.757L371.434 694.134L370.687 693.137L370.063 692.015L368.443 687.279L367.571 686.032L366.449 685.035L364.828 684.287L363.457 684.162L362.211 684.287L360.964 684.786L359.967 685.534L359.095 686.531L358.596 687.403L358.222 688.026L357.973 689.024L357.848 690.145L357.973 691.392L358.472 693.76L359.344 697.125L359.469 698.87V699.493L359.095 700.989L355.356 707.845L353.86 711.584L353.112 712.706L351.866 713.827L350.619 714.451L349.373 714.825L344.138 715.572L342.393 716.071L341.022 716.819L339.9 717.691L335.787 721.929L335.039 723.051L334.914 724.173L335.163 725.17L336.036 726.167L337.158 726.666L341.146 727.912L341.396 728.037L341.894 728.411L342.517 729.408L343.016 730.529L343.39 731.776V733.022L342.767 738.881L342.891 740.002L343.888 743.742L344.013 744.863L343.639 749.6L343.764 750.722L344.013 751.968L344.636 753.09L345.384 753.962L346.007 754.336L350.121 756.58L351.492 757.826L354.857 762.313L355.979 763.31L357.225 763.934L358.721 764.183H359.967L361.214 764.058L362.336 763.684L363.457 763.061L364.454 762.313L365.078 761.192L365.452 760.07L366.823 753.962L370.188 744.863L371.684 742.371L372.307 741.623L372.806 741.124L373.803 740.626L374.924 740.501H379.91L381.78 740.252L383.275 739.504Z" fill="#506754"/>
<path d="M560.268 284.683L560.891 285.057L565.503 288.423L567.746 290.542L568.619 291.788L569.367 293.284L570.862 298.519L571.486 300.139L572.857 301.759L573.979 302.881L589.31 311.731L591.802 312.479L595.666 312.853L596.913 313.102L598.035 313.725L599.156 314.722L602.522 318.835L607.632 323.696L609.876 325.317L611.122 325.815L613.366 326.314L622.34 326.563L624.708 327.062L627.076 327.934L630.442 329.804L643.654 339.401L644.9 340.025L646.271 340.399L647.518 340.648H648.764L656.741 339.152L658.112 339.277L659.234 339.651L660.48 340.399L669.33 349.124L670.826 351.367L671.823 352.489L672.945 353.237L690.145 360.092L690.769 360.591L691.516 361.338L692.264 362.46L692.763 363.582L693.137 364.704L693.386 366.573L694.632 446.469L695.131 449.211L695.505 450.084L696.253 451.206L697.125 452.327L716.196 466.163L729.782 479.873L732.025 482.616L734.269 486.355L736.512 491.59L737.759 495.828L738.631 502.932L738.257 516.02L722.926 641.535L708.468 754.71L701.488 756.704L575.474 770.29L561.639 769.418L556.529 768.172L553.662 767.05L549.798 765.18L534.841 755.707L533.968 755.084L512.779 735.515L507.544 726.79L504.553 723.176L503.68 721.804L503.306 719.935V718.564L505.425 708.717L506.422 706.598L509.538 701.488L510.037 700.491L510.411 699.369V699.12L510.536 697.998L510.411 697.001L510.037 695.754L509.289 694.383L504.927 689.397L501.686 685.16L499.941 682.418L497.074 678.927L489.222 671.823L475.137 650.758L474.514 649.636L474.14 648.39V647.144V646.022L476.384 637.671L476.757 635.178L476.01 625.456L476.134 624.334L476.633 623.212L477.256 622.091L478.876 619.972L479.5 618.85L479.998 617.603L480.372 616.482L480.621 615.235V614.113L477.879 594.669V592.301L479.375 583.701V583.451L478.502 582.579L477.505 581.956L476.384 581.706L470.027 580.46L468.78 580.335L467.659 580.585L461.302 582.33L460.055 582.454L458.809 582.33L456.441 581.457L455.194 580.709L454.072 579.712L452.951 577.469L452.577 575.973L452.452 574.602L452.826 568.619L453.574 566.126L453.823 565.129L453.574 563.882L452.826 562.636L451.33 561.39L450.084 560.766L448.713 560.268L446.345 559.769L434.628 558.772L426.277 558.897L424.283 558.523L423.161 558.149L421.915 557.65L420.793 556.903L419.796 556.03L419.048 555.158L418.425 554.41L411.569 537.832L409.949 529.481L409.45 527.985L408.079 524.869L405.213 515.646L404.215 513.776L403.094 512.654L401.972 511.782L399.978 510.536L399.354 510.037L398.731 509.164L398.357 508.043L398.233 504.303L398.731 498.694L398.607 493.335L399.23 483.239L400.227 478.752L400.352 476.508V475.137L399.604 473.143L399.479 472.769V471.896L399.853 470.899L400.726 469.528L403.218 466.287L403.343 466.038L403.966 464.293L404.714 461.676L404.589 459.681L405.711 457.438L409.201 451.954L409.949 451.206L411.445 450.084L412.691 449.585L413.938 449.336L415.059 449.585L420.793 452.452L423.161 453.325L427.025 454.322L436.747 455.319H439.365L447.093 454.197L449.585 454.322L453.823 455.444H454.82L455.942 455.194L457.189 454.571L458.56 453.449L459.557 451.954L460.429 449.835L460.554 448.214L460.18 446.843L458.684 444.35L458.186 443.229L457.936 441.982L458.186 440.486L458.934 438.866L464.169 432.011L469.279 426.776L470.65 425.903L471.896 425.28L489.845 420.918L491.964 419.92L493.335 419.048L496.202 416.306L500.066 413.813L501.187 412.567L502.184 410.946L504.179 406.958L505.674 404.963L506.547 404.091L507.17 403.468L508.043 402.844L509.164 402.346L510.286 401.972L511.533 401.723H514.026L525.493 403.218L538.331 402.346L543.192 402.72L544.314 402.595L545.311 402.221L545.934 401.349L546.308 400.227L546.557 398.981L546.682 397.236V395.117L546.183 391.627L545.56 389.508L544.812 387.763L543.316 385.021L542.943 383.65L543.192 381.904L543.815 379.162L543.566 377.293L543.441 377.043L539.328 371.435L534.592 363.457L533.22 361.837L528.983 357.599L528.11 356.353L527.487 355.231L527.238 353.985V352.738L528.359 344.886V342.268L527.985 339.526L528.11 338.155L529.107 336.784L530.354 336.036L531.6 335.662L533.719 335.164L534.342 334.914L535.215 334.042L539.203 328.308L541.198 326.065L543.566 323.821L544.937 322.824L546.308 322.076L548.925 321.204L550.172 320.58L551.169 319.708L551.917 318.711L552.291 317.714L552.54 316.966V316.841V315.969L552.415 314.847L552.041 313.6L551.543 312.229L550.92 310.983L550.047 309.737L548.925 308.615L546.682 306.745L544.314 305L540.824 303.504L540.45 302.757L539.951 300.638L539.827 299.267L539.951 298.02L540.076 296.898L540.699 295.029L541.447 293.034L542.943 290.666L544.314 288.797L546.059 287.301L546.807 286.678H546.931L550.047 285.431L551.044 286.304L551.294 286.678L551.418 286.802L552.166 287.799L553.163 288.547L554.285 289.046L555.531 289.171L556.903 288.547L558.024 287.924L560.268 284.683Z" fill="#506754"/>
<path d="M404.589 459.681L399.978 456.191L399.105 455.319L398.357 454.197L397.36 451.829L394.493 440.611L393.621 438.368L392.624 436.747L392.499 436.623L392.001 436.124L391.128 435.75L384.148 433.88L382.902 433.257L381.655 432.26L380.658 430.64L380.16 429.269L379.91 427.898L381.032 412.442L380.783 411.071L380.409 409.575L379.536 408.453L378.539 407.705L376.171 406.958L369.066 405.213L367.695 404.714L369.814 402.844L371.933 402.097L375.174 401.723L377.043 401.224L385.644 396.488L387.638 395.615L389.383 395.117L394.618 394.618L395.865 394.244L396.737 393.372L397.111 392.499L396.862 391.502L396.612 390.754L394.12 386.142L393.746 384.771L393.621 383.525L393.87 382.029L394.618 380.783L395.989 379.287L397.236 378.664L398.357 378.539L399.23 378.788L403.468 380.409L404.839 380.783H406.085L407.082 380.533L407.706 379.536L407.955 378.539V377.542L407.83 377.043L406.833 372.182V370.936V369.69L407.082 368.568L407.955 365.95L409.201 363.457L409.949 362.585L411.071 361.962H412.193L413.439 362.086L414.81 361.962L417.303 361.338L418.425 360.84L419.173 359.718L419.547 358.472L420.419 356.353L421.915 353.735L428.272 346.381L442.356 334.914L448.838 330.676L461.177 325.441L463.047 324.195L464.169 322.824L464.916 321.453L467.16 316.592L469.03 314.224L471.647 311.606L475.76 308.989L496.077 298.519L498.819 297.522L500.066 297.148H501.312L502.434 297.272L503.68 297.771L504.927 298.394L506.921 300.139L510.785 304.252L517.64 309.861L520.008 311.232L521.255 311.606L526.864 311.98L530.478 312.728H531.725L532.722 312.479L533.719 311.855L534.467 311.357L538.58 305.623L540.824 303.504L544.314 305L546.682 306.745L548.925 308.615L550.047 309.737L550.92 310.983L551.543 312.229L552.042 313.6L552.415 314.847L552.54 315.969V316.841V316.966L552.291 317.714L551.917 318.711L551.169 319.708L550.172 320.58L548.925 321.204L546.308 322.076L544.937 322.824L543.566 323.821L541.198 326.065L539.203 328.308L535.215 334.042L534.342 334.914L533.719 335.164L531.6 335.662L530.354 336.036L529.107 336.784L528.11 338.155L527.986 339.526L528.359 342.268V344.886L527.238 352.738V353.985L527.487 355.231L528.11 356.353L528.983 357.599L533.22 361.837L534.592 363.457L539.328 371.435L543.441 377.043L543.566 377.293L543.815 379.162L543.192 381.904L542.943 383.65L543.317 385.021L544.812 387.763L545.56 389.508L546.183 391.627L546.682 395.117V397.236L546.557 398.981L546.308 400.227L545.934 401.349L545.311 402.221L544.314 402.595L543.192 402.72L538.331 402.346L525.493 403.218L514.026 401.723H511.533L510.286 401.972L509.165 402.346L508.043 402.844L507.17 403.468L506.547 404.091L505.675 404.963L504.179 406.958L502.185 410.946L501.187 412.567L500.066 413.813L496.202 416.306L493.335 419.048L491.964 419.92L489.845 420.918L471.896 425.28L470.65 425.903L469.279 426.776L464.169 432.011L458.934 438.866L458.186 440.486L457.936 441.982L458.186 443.229L458.684 444.35L460.18 446.843L460.554 448.214L460.429 449.835L459.557 451.954L458.56 453.449L457.189 454.571L455.942 455.194L454.82 455.444H453.823L449.585 454.322L447.093 454.197L439.365 455.319H436.747L427.025 454.322L423.161 453.325L420.793 452.452L415.059 449.585L413.938 449.336L412.691 449.585L411.445 450.084L409.949 451.206L409.201 451.954L405.711 457.438L404.589 459.681Z" fill="#506754"/>
<path d="M321.079 206.408L327.311 209.025L330.427 209.773H331.674L360.217 203.167L364.081 202.669L366.324 202.793L368.069 203.043L381.157 207.28L383.026 207.654H384.397L385.768 207.405L392.374 205.785L398.108 205.411L399.479 205.535L417.926 209.773L420.419 210.77L421.541 211.518L422.787 212.64L429.269 220.493L430.889 221.739L432.759 222.985L435.376 223.983L437.37 224.232L439.115 224.107L440.736 223.733L442.231 223.11L446.594 220.742L448.09 219.994L449.71 219.745H451.58L452.701 220.368L453.2 220.866L453.325 221.365L453.574 225.977L453.699 226.725L454.072 228.096L454.82 229.965L456.067 231.336L457.936 232.583L459.432 232.957L460.803 233.081L466.163 232.583L468.032 232.707L469.528 233.206L475.262 236.197L477.381 236.945L478.752 237.07L479.998 236.821L482.117 235.824L488.349 231.71L489.845 231.087L491.714 230.962L493.21 231.461L494.457 232.458L495.329 233.705L504.428 250.157L508.915 262.123L510.785 264.741L512.156 265.987L513.527 267.109L515.397 267.981L516.892 268.48L533.47 271.097L535.339 271.721L537.708 273.092L538.954 273.964L547.928 282.066L549.299 283.686L550.047 285.431L546.931 286.678H546.806L546.059 287.301L544.314 288.797L542.943 290.666L541.447 293.034L540.699 295.029L540.076 296.898L539.951 298.02L539.826 299.267L539.951 300.638L540.45 302.757L540.824 303.504L538.58 305.623L534.467 311.357L533.719 311.855L532.722 312.479L531.725 312.728H530.478L526.864 311.98L521.255 311.606L520.008 311.232L517.64 309.861L510.785 304.252L506.921 300.139L504.927 298.394L503.68 297.771L502.434 297.272L501.312 297.148H500.066L498.819 297.522L496.077 298.519L475.76 308.989L471.647 311.606L469.03 314.224L467.16 316.592L464.916 321.453L464.168 322.824L463.047 324.195L461.177 325.441L448.837 330.676L442.356 334.914L428.271 346.381L421.915 353.735L420.419 356.353L419.546 358.472L419.173 359.718L418.425 360.84L417.303 361.339L414.81 361.962L413.439 362.086L412.193 361.962H411.071L409.949 362.585L409.201 363.457L407.955 365.95L407.082 368.568L406.833 369.69V370.936V372.182L407.83 377.043L407.955 377.542V378.539L407.705 379.536L407.082 380.533L406.085 380.783H404.839L403.468 380.409L399.23 378.788L398.357 378.539L397.236 378.664L395.989 379.287L394.618 380.783L393.87 382.029L393.621 383.525L393.745 384.771L394.119 386.142L396.612 390.754L396.862 391.502L397.111 392.499L396.737 393.372L395.864 394.244L394.618 394.618L389.383 395.117L387.638 395.615L385.644 396.488L377.043 401.224L375.174 401.723L371.933 402.097L369.814 402.844L367.695 404.714L363.083 403.468L348.002 401.099L338.778 401.473L337.282 401.847L335.413 402.471L333.917 403.343L332.671 404.465L328.807 409.451L327.685 410.448L326.688 411.195L325.691 411.694L324.943 412.068L323.946 412.317L322.824 412.567L320.456 412.816L314.099 412.691L311.357 413.065L298.02 417.802L296.774 418.051H295.527L294.281 417.926L293.159 417.552L292.162 417.054L291.539 416.555L290.666 415.683L289.918 414.561L289.295 413.19L289.046 411.569L289.544 395.74L288.547 389.757L286.927 383.151L286.678 381.655V379.91L289.669 359.718L289.544 358.472L289.046 357.225L287.924 356.228H286.553L284.06 356.727L282.814 356.602L281.692 356.228L280.57 355.231L280.072 353.985L279.947 352.489L280.695 350.744L282.564 347.129L282.814 346.381L283.312 344.263V342.891L283.188 341.396L282.938 340.149L281.941 337.656L282.814 337.033L283.686 335.787L284.683 333.793L287.799 324.07L289.42 320.83L291.913 317.464L298.519 311.731L299.516 310.609L300.388 309.363L300.887 308.116L301.012 306.87L300.762 305.623L299.64 304.252L298.394 303.13L291.913 299.64L289.794 298.269L289.046 297.397L288.173 296.275L287.55 295.153L281.692 271.347L281.193 269.976L280.446 268.729L277.329 265.613L270.973 260.378L267.732 258.758L266.112 257.636L264.865 256.39L264.616 256.14L263.494 254.769L261.5 253.647L258.508 252.526L241.183 248.412L239.937 247.914L239.064 247.291L238.067 246.044L243.925 239.563L245.172 238.69L246.543 237.818L266.859 228.096L276.208 225.478L296.15 214.136L316.592 205.66L317.714 205.535L321.079 206.408Z" fill="#506754"/>
<path d="M401.224 692.015L398.607 700.865L398.731 702.36L399.105 704.105L400.476 705.476L401.099 706.474L401.349 707.845L400.975 709.216L399.728 710.961L398.607 712.082L392.25 716.57L391.003 717.691L390.255 719.187L389.757 720.807L389.508 724.796L388.635 727.663L383.276 739.504L381.78 740.252L379.91 740.501H374.924L373.803 740.625L372.806 741.124L372.307 741.623L371.684 742.371L370.188 744.863L366.823 753.962L365.452 760.07L365.078 761.192L364.454 762.313L363.457 763.061L362.336 763.684L361.214 764.058L359.967 764.183H358.721L357.225 763.934L355.979 763.31L354.857 762.313L351.492 757.826L350.121 756.58L346.007 754.336L345.384 753.962L344.636 753.09L344.013 751.968L343.764 750.722L343.639 749.6L344.013 744.863L343.888 743.742L342.891 740.002L342.767 738.881L343.39 733.022V731.776L343.016 730.529L342.517 729.408L341.894 728.411L341.396 728.037L341.146 727.912L337.158 726.666L336.036 726.167L335.164 725.17L334.914 724.173L335.039 723.051L335.787 721.929L339.9 717.691L341.022 716.819L342.393 716.071L344.138 715.572L349.373 714.825L350.619 714.451L351.866 713.827L353.112 712.706L353.86 711.584L355.356 707.845L359.095 700.989L359.469 699.493V698.87L359.344 697.125L358.472 693.76L357.973 691.392L357.848 690.145L357.973 689.024L358.222 688.026L358.596 687.403L359.095 686.531L359.967 685.534L360.965 684.786L362.211 684.287L363.457 684.162L364.828 684.287L366.449 685.035L367.571 686.032L368.443 687.279L370.063 692.015L370.687 693.137L371.434 694.134L372.307 694.757L372.93 695.006L374.052 695.131L375.672 694.632L378.29 693.511L379.786 693.137L381.531 692.887H387.264L388.386 692.514L389.632 692.015L394.618 689.148L395.74 688.774L397.111 689.024L398.108 689.397L401.224 692.015Z" fill="#506754"/>
</svg>
